<svg xmlns="http://www.w3.org/2000/svg" viewBox="0 0 100 100">
  <defs>
    <linearGradient id="grad" x1="0%" y1="0%" x2="100%" y2="100%">
      <stop offset="0%" style="stop-color:#3b82f6;stop-opacity:1" />
      <stop offset="100%" style="stop-color:#6366f1;stop-opacity:1" />
    </linearGradient>
  </defs>
  <rect width="100" height="100" rx="20" fill="url(#grad)"/>
  <path d="M50 15C30.67 15 15 30.67 15 50c0 15.47 10.04 28.6 23.96 33.24 1.75.32 2.39-.76 2.39-1.69 0-.83-.03-3.03-.05-5.95-9.75 2.12-11.81-4.7-11.81-4.7-1.59-4.05-3.89-5.13-3.89-5.13-3.18-2.18.24-2.13.24-2.13 3.52.25 5.37 3.61 5.37 3.61 3.13 5.36 8.2 3.81 10.2 2.91.32-2.27 1.22-3.81 2.22-4.69-7.78-.89-15.96-3.89-15.96-17.31 0-3.82 1.37-6.95 3.61-9.4-.36-.89-1.56-4.45.34-9.27 0 0 2.94-.94 9.64 3.59 2.8-.78 5.8-1.17 8.78-1.18 2.98.01 5.98.4 8.78 1.18 6.7-4.53 9.63-3.59 9.63-3.59 1.91 4.82.71 8.38.35 9.27 2.25 2.45 3.6 5.58 3.6 9.4 0 13.46-8.2 16.41-16.01 17.28 1.26 1.08 2.38 3.22 2.38 6.49 0 4.69-.04 8.47-.04 9.62 0 .94.63 2.03 2.41 1.69C74.98 78.58 85 65.46 85 50c0-19.33-15.67-35-35-35z" fill="white"/>
</svg>
